Coordinates
version=1
nRows=9
nColumns=24
inDegrees=yes

Units are S.I. units (second, meters, Newtons, ...)
Angles are in degrees.

endheader
time	pelvis_tilt	pelvis_list	pelvis_rotation	pelvis_tx	pelvis_ty	pelvis_tz	hip_flexion_r	hip_adduction_r	hip_rotation_r	knee_angle_r	ankle_angle_r	subtalar_angle_r	mtp_angle_r	hip_flexion_l	hip_adduction_l	hip_rotation_l	knee_angle_l	ankle_angle_l	subtalar_angle_l	mtp_angle_l	lumbar_extension	lumbar_bending	lumbar_rotation
      1.58833333	     -0.89398471	      7.74214572	     -3.77309270	      0.42508677	      0.98878925	      0.30353185	     15.56234285	     -9.57988433	      3.01371051	    -66.20657231	      4.62682370	    -12.34491732	      4.19834704	     10.23693082	     13.85199067	     -1.09656504	    -13.64596296	      3.43979864	    -14.65962489	     -2.00231935	      2.57514374	     -5.01639139	      6.12947156
      1.59250000	     -0.82355479	      7.66767733	     -3.64673720	      0.42972637	      0.98937126	      0.30320941	     16.08287927	     -9.47709189	      3.00083704	    -66.00780609	      5.10040233	    -12.40620959	      4.10051484	      9.69087620	     13.83885249	     -0.88165153	    -13.37613291	      3.52192012	    -14.62073252	     -2.03118169	      2.46250877	     -4.95103408	      5.95037063
      1.59666667	     -0.70693834	      7.59570480	     -3.52196789	      0.43439569	      0.99001773	      0.30289084	     16.53162947	     -9.38332293	      2.98324898	    -65.74557429	      5.51678824	    -12.38700177	      3.85331102	      9.06870974	     13.83306235	     -0.63273994	    -13.05506078	      3.57696833	    -14.64674012	     -2.10892253	      2.29991827	     -4.89832217	      5.61123764
      1.60083333	     -0.68655097	      7.55400999	     -3.37251283	      0.43898833	      0.99046697	      0.30254094	     17.09743483	     -9.31484887	      2.96871357	    -65.49152093	      6.03664088	    -12.31666215	      1.68011331	      8.56449531	     13.85900942	     -0.31150901	    -12.75086184	      3.56249021	    -14.79400191	     -2.82454317	      2.24840323	     -4.87811452	      5.41803904
      1.60500000	     -0.58974156	      7.43802289	     -3.23316117	      0.44359829	      0.99103805	      0.30226988	     17.53726263	     -9.15651427	      2.94677804	    -65.14090769	      6.45868545	    -12.27919288	      1.65609504	      8.00991152	     13.78142744	     -0.15040459	    -12.53363425	      3.74628049	    -14.59808688	     -2.82874134	      2.08247475	     -4.76193527	      5.31281318
      1.60916667	     -0.50619687	      7.36431327	     -3.09376788	      0.44820897	      0.99154476	      0.30198756	     17.99404436	     -9.05060463	      2.92829877	    -64.77085377	      6.87262927	    -12.20849230	      1.63400943	      7.45751984	     13.74960438	      0.03694303	    -12.27887395	      3.86568463	    -14.46868187	     -2.83594294	      1.94666131	     -4.70357028	      5.13910001
      1.61333333	     -0.42132053	      7.29231815	     -2.95305223	      0.45281117	      0.99204712	      0.30171134	     18.43684949	     -8.94733033	      2.90830688	    -64.35587820	      7.25728944	    -12.09304841	      1.60685833	      6.89603863	     13.71824825	      0.24874331	    -12.00726595	      3.96654981	    -14.38742284	     -2.84768629	      1.80877746	     -4.65730355	      4.91554086
      1.61750000	     -0.34642723	      7.21049050	     -2.78945704	      0.45742394	      0.99250987	      0.30141397	     18.86824550	     -8.84070140	      2.85902137	    -63.89992277	      7.64373322	    -11.98595131	      1.58672574	      6.34792224	     13.67268303	      0.46401968	    -11.74874141	      4.06826265	    -14.30624158	     -2.85840755	      1.69476351	     -4.58756913	      4.72786780
      1.62166667	     -0.26526591	      7.15796599	     -2.63827453	      0.46201519	      0.99294340	      0.30113118	     19.29256381	     -8.76005810	      2.83968784	    -63.41548745	      7.99063683	    -11.82369615	      1.55385873	      5.78524253	     13.65642175	      0.69295573	    -11.46334412	      4.16065196	    -14.25228986	     -2.87868716	      1.55980947	     -4.55740287	      4.45894908
